<?xml version="1.0" standalone="no"?>
<!DOCTYPE svg PUBLIC "-//W3C//DTD SVG 20010904//EN"
 "http://www.w3.org/TR/2001/REC-SVG-20010904/DTD/svg10.dtd">
<svg version="1.0" xmlns="http://www.w3.org/2000/svg"
 width="920.000000pt" height="500.000000pt" viewBox="0 0 920.000000 500.000000"
 preserveAspectRatio="xMidYMid meet">

<g transform="translate(0.000000,500.000000) scale(0.100000,-0.100000)"
fill="#000000" stroke="none">
<path d="M4210 4628 c-78 -41 -85 -57 -88 -236 l-3 -157 -81 -19 c-135 -30
-302 -100 -441 -183 l-58 -35 -51 48 c-28 26 -68 66 -90 90 -45 49 -110 84
-154 84 -55 -1 -108 -37 -216 -147 -110 -113 -128 -140 -128 -199 0 -54 24
-91 127 -195 l95 -96 -35 -54 c-77 -121 -157 -311 -192 -456 l-17 -73 -137 0
c-122 0 -141 -2 -181 -22 -82 -42 -85 -53 -85 -268 0 -175 1 -191 21 -216 47
-64 62 -69 229 -72 l153 -3 8 -42 c20 -121 94 -315 173 -452 28 -48 51 -91 51
-94 0 -4 -39 -45 -86 -91 -94 -93 -124 -141 -124 -195 0 -60 24 -96 141 -212
116 -114 145 -133 204 -133 57 0 85 18 185 115 53 52 99 95 103 95 4 0 30 -15
59 -34 116 -74 291 -148 423 -180 39 -10 78 -19 87 -22 14 -4 17 -25 20 -154
3 -162 8 -177 72 -224 25 -20 41 -21 216 -21 175 0 191 1 216 21 63 47 69 63
74 226 l5 150 90 23 c91 24 168 49 239 80 l39 17 -185 185 -186 186 -88 -18
c-122 -25 -299 -23 -425 3 -331 69 -616 295 -763 607 -68 143 -98 284 -98 460
1 489 328 911 807 1042 91 25 115 28 275 28 160 0 183 -3 274 -28 383 -106
667 -390 773 -773 26 -92 28 -112 27 -279 0 -150 -4 -192 -21 -255 l-21 -74
178 -179 c98 -99 183 -177 188 -173 17 10 91 210 113 305 l21 90 153 3 c167 3
182 8 229 72 19 25 21 41 21 214 0 181 -1 188 -24 221 -41 57 -86 71 -243 71
l-138 0 -6 28 c-36 166 -104 336 -189 476 l-47 78 95 97 c171 171 170 221 -6
400 -182 184 -235 186 -409 14 l-96 -96 -60 37 c-133 81 -328 160 -461 187
l-59 13 -4 155 c-3 146 -5 158 -27 190 -42 59 -85 71 -261 71 -142 0 -160 -2
-200 -22z"/>
<path d="M4380 3324 c-60 -10 -70 -16 -85 -45 -27 -51 -13 -77 106 -195 116
-114 148 -163 149 -227 0 -62 -26 -107 -113 -196 -164 -166 -234 -164 -414 17
-56 56 -113 104 -127 108 -38 9 -82 -13 -96 -47 -29 -69 13 -261 82 -376 42
-72 139 -169 211 -211 103 -62 186 -84 347 -91 227 -11 180 23 733 -529 258
-257 484 -488 503 -513 57 -78 66 -116 69 -289 2 -114 7 -170 20 -210 55 -173
175 -317 326 -390 105 -50 210 -73 307 -67 80 5 107 20 117 68 9 40 -5 59
-132 187 -113 114 -133 146 -133 217 0 66 27 109 127 206 96 92 145 116 215
103 53 -11 66 -21 184 -136 95 -91 117 -108 143 -108 73 0 97 43 87 150 -16
156 -74 279 -186 390 -130 131 -246 177 -475 189 -125 7 -150 11 -197 34 -43
21 -149 123 -549 524 -433 435 -499 505 -519 553 -21 49 -24 72 -25 205 -2
172 -11 217 -68 334 -73 151 -218 272 -382 320 -71 20 -180 32 -225 25z"/>
</g>
</svg>
