<?xml version="1.0" standalone="no"?>
<!DOCTYPE svg PUBLIC "-//W3C//DTD SVG 20010904//EN"
 "http://www.w3.org/TR/2001/REC-SVG-20010904/DTD/svg10.dtd">
<svg version="1.0" xmlns="http://www.w3.org/2000/svg"
 width="512.000000pt" height="512.000000pt" viewBox="0 0 512.000000 512.000000"
 preserveAspectRatio="xMidYMid meet">

<g transform="translate(0.000000,512.000000) scale(0.100000,-0.100000)"
fill="#000000" stroke="none">
<path d="M2240 5111 c-96 -30 -185 -115 -213 -201 -12 -36 -17 -86 -17 -162 0
-123 -11 -157 -63 -188 -53 -32 -91 -26 -197 34 -52 30 -117 60 -143 67 -96
24 -213 -11 -285 -84 -45 -46 -306 -490 -322 -547 -16 -57 -12 -145 10 -203
26 -70 82 -126 183 -184 l82 -48 -285 -5 c-247 -4 -289 -7 -317 -23 -45 -24
-96 -77 -119 -123 -18 -38 -19 -76 -22 -1279 -2 -1137 -1 -1244 14 -1284 23
-60 79 -119 139 -147 l50 -24 653 0 652 0 0 -31 c0 -50 -39 -356 -49 -381 -26
-66 -89 -98 -196 -98 -46 0 -87 -6 -104 -14 -66 -35 -66 -137 0 -172 42 -21
1696 -21 1738 0 66 35 66 137 0 172 -17 8 -58 14 -104 14 -107 0 -170 32 -196
98 -10 25 -49 331 -49 381 l0 31 653 0 652 0 50 24 c60 28 116 87 139 147 15
40 16 147 14 1284 -3 1203 -4 1241 -22 1279 -23 46 -74 99 -119 123 -28 16
-70 19 -317 23 l-285 5 82 48 c101 60 167 130 188 200 17 58 19 136 5 187 -16
57 -277 501 -322 547 -72 73 -189 108 -285 84 -26 -7 -91 -37 -143 -67 -106
-60 -144 -66 -197 -34 -50 30 -57 53 -63 200 -5 120 -9 141 -32 185 -31 60
-86 114 -148 146 -44 24 -51 24 -355 26 -170 1 -321 -2 -335 -6z m637 -224
c27 -27 28 -31 34 -165 6 -158 20 -201 89 -276 57 -62 133 -97 219 -104 85 -6
119 5 244 75 84 48 103 55 134 50 20 -4 47 -17 59 -29 12 -13 79 -122 148
-243 167 -290 167 -296 -2 -394 -155 -88 -207 -167 -207 -311 0 -144 53 -223
206 -310 170 -98 170 -104 0 -400 -176 -307 -178 -308 -357 -206 -105 60 -151
72 -243 63 -55 -5 -128 -33 -163 -64 -9 -8 -18 -11 -21 -6 -8 14 -60 234 -56
237 2 1 27 19 55 39 74 53 176 165 223 244 52 89 88 198 103 316 10 81 9 109
-5 196 -45 272 -206 488 -453 603 -77 36 -126 34 -161 -7 -23 -26 -23 -30 -23
-306 l0 -279 -140 0 -140 0 0 279 c0 265 -1 280 -20 304 -45 57 -131 41 -274
-53 -239 -157 -380 -451 -349 -730 13 -116 51 -232 105 -324 48 -81 161 -204
230 -248 26 -17 48 -37 48 -44 0 -11 -45 -190 -56 -223 -4 -11 -7 -11 -22 1
-35 32 -107 60 -163 65 -92 9 -138 -3 -243 -63 -53 -30 -111 -58 -129 -60 -62
-9 -84 17 -226 262 -172 300 -172 306 -2 404 153 87 206 166 206 310 0 144
-52 223 -207 311 -169 98 -169 104 -2 394 69 121 136 230 148 243 12 12 39 25
59 29 31 5 50 -2 134 -49 126 -71 160 -82 244 -76 86 7 162 42 219 104 69 75
83 118 89 275 6 145 14 168 66 190 11 4 145 7 297 6 l278 -2 27 -28z m-619
-1448 l32 -29 270 0 270 0 32 29 33 29 5 249 5 248 65 -65 c121 -119 173 -243
174 -410 0 -118 -16 -188 -67 -285 -42 -79 -155 -192 -234 -233 -69 -36 -103
-72 -103 -109 0 -13 38 -177 85 -365 94 -373 94 -376 35 -415 -32 -22 -40 -23
-300 -23 -260 0 -268 1 -300 23 -59 39 -59 42 35 415 47 188 85 352 85 365 0
37 -34 73 -103 109 -79 41 -192 154 -234 233 -50 95 -67 167 -67 280 1 168 51
291 167 408 l72 72 5 -248 5 -249 33 -29z m-1057 -97 c-100 -57 -151 -105
-182 -170 -27 -55 -37 -157 -20 -217 15 -57 275 -503 319 -548 58 -60 132 -91
216 -92 80 0 112 11 231 79 90 51 131 57 182 26 50 -30 57 -53 63 -200 5 -120
9 -141 32 -186 31 -60 93 -118 157 -148 44 -20 60 -21 361 -21 301 0 317 1
361 21 64 30 126 88 157 148 23 45 27 66 32 186 6 147 13 170 63 200 51 31 92
25 182 -26 119 -68 151 -79 231 -79 84 1 158 32 216 92 44 45 304 491 319 548
16 57 6 164 -20 218 -31 64 -80 110 -174 165 l-82 47 254 3 c226 2 256 0 273
-14 17 -16 18 -56 18 -981 l0 -963 -721 0 -721 0 -29 -29 c-31 -31 -39 -83
-19 -122 27 -50 18 -49 780 -49 l710 0 0 -142 c0 -118 -3 -145 -17 -160 -15
-17 -85 -18 -1811 -18 -1657 0 -1797 1 -1814 17 -16 14 -18 33 -18 160 l0 143
696 0 c492 0 702 3 717 11 63 32 77 111 28 160 l-29 29 -706 0 -706 0 0 962
c0 881 1 963 17 980 15 17 37 18 277 18 l261 0 -84 -48z m1673 -2654 c3 -13
15 -107 26 -210 20 -175 27 -216 45 -260 7 -17 -15 -18 -385 -18 -370 0 -392
1 -385 18 18 44 25 85 45 260 11 103 23 197 26 210 l4 22 310 0 310 0 4 -22z"/>
<path d="M2501 1416 c-56 -31 -66 -99 -22 -148 24 -27 36 -33 71 -33 100 0
136 135 49 181 -34 17 -67 17 -98 0z"/>
</g>
</svg>
